<?xml version="1.0" encoding="utf-8" standalone="no"?>
<!DOCTYPE svg PUBLIC "-//W3C//DTD SVG 1.1//EN"
  "http://www.w3.org/Graphics/SVG/1.1/DTD/svg11.dtd">
<svg xmlns:xlink="http://www.w3.org/1999/xlink" width="561.6pt" height="316.8pt" viewBox="0 0 561.6 316.8" xmlns="http://www.w3.org/2000/svg" version="1.1">
 <metadata>
  <rdf:RDF xmlns:dc="http://purl.org/dc/elements/1.1/" xmlns:cc="http://creativecommons.org/ns#" xmlns:rdf="http://www.w3.org/1999/02/22-rdf-syntax-ns#">
   <cc:Work>
    <dc:type rdf:resource="http://purl.org/dc/dcmitype/StillImage"/>
    <dc:format>image/svg+xml</dc:format>
    <dc:creator>
     <cc:Agent>
      <dc:title>Michael P. Gibb, Ph.D.</dc:title>
     </cc:Agent>
    </dc:creator>
   </cc:Work>
  </rdf:RDF>
 </metadata>
 <defs>
  <style type="text/css">*{stroke-linejoin: round; stroke-linecap: butt}</style>
 </defs>
 <g id="figure_1">
  <g id="patch_1">
   <path d="M 0 316.8 
L 561.6 316.8 
L 561.6 0 
L 0 0 
z
" style="fill: #ffffff"/>
  </g>
  <g id="axes_1">
   <g id="patch_2">
    <path d="M 44.57 274.84 
L 541.305 274.84 
L 541.305 26.88 
L 44.57 26.88 
z
" style="fill: #ffffff"/>
   </g>
   <g id="matplotlib.axis_1">
    <g id="xtick_1">
     <g id="line2d_1">
      <path d="M 44.57 274.84 
L 44.57 26.88 
" clip-path="url(#p0f9dba25d6)" style="fill: none; stroke: #b0b0b0; stroke-opacity: 0.15; stroke-width: 0.8; stroke-linecap: square"/>
     </g>
     <g id="line2d_2">
      <defs>
       <path id="md2431ae41f" d="M 0 0 
L 0 3.5 
" style="stroke: #000000; stroke-width: 0.8"/>
      </defs>
      <g>
       <use xlink:href="#md2431ae41f" x="44.57" y="274.84" style="stroke: #000000; stroke-width: 0.8"/>
      </g>
     </g>
     <g id="text_1">
      <text style="font-size: 10px; font-family: 'DejaVu Sans'; text-anchor: middle" x="44.57" y="289.438438" transform="rotate(-0 44.57 289.438438)">0</text>
     </g>
    </g>
    <g id="xtick_2">
     <g id="line2d_3">
      <path d="M 143.917 274.84 
L 143.917 26.88 
" clip-path="url(#p0f9dba25d6)" style="fill: none; stroke: #b0b0b0; stroke-opacity: 0.15; stroke-width: 0.8; stroke-linecap: square"/>
     </g>
     <g id="line2d_4">
      <g>
       <use xlink:href="#md2431ae41f" x="143.917" y="274.84" style="stroke: #000000; stroke-width: 0.8"/>
      </g>
     </g>
     <g id="text_2">
      <text style="font-size: 10px; font-family: 'DejaVu Sans'; text-anchor: middle" x="143.917" y="289.438438" transform="rotate(-0 143.917 289.438438)">20</text>
     </g>
    </g>
    <g id="xtick_3">
     <g id="line2d_5">
      <path d="M 243.264 274.84 
L 243.264 26.88 
" clip-path="url(#p0f9dba25d6)" style="fill: none; stroke: #b0b0b0; stroke-opacity: 0.15; stroke-width: 0.8; stroke-linecap: square"/>
     </g>
     <g id="line2d_6">
      <g>
       <use xlink:href="#md2431ae41f" x="243.264" y="274.84" style="stroke: #000000; stroke-width: 0.8"/>
      </g>
     </g>
     <g id="text_3">
      <text style="font-size: 10px; font-family: 'DejaVu Sans'; text-anchor: middle" x="243.264" y="289.438438" transform="rotate(-0 243.264 289.438438)">40</text>
     </g>
    </g>
    <g id="xtick_4">
     <g id="line2d_7">
      <path d="M 342.611 274.84 
L 342.611 26.88 
" clip-path="url(#p0f9dba25d6)" style="fill: none; stroke: #b0b0b0; stroke-opacity: 0.15; stroke-width: 0.8; stroke-linecap: square"/>
     </g>
     <g id="line2d_8">
      <g>
       <use xlink:href="#md2431ae41f" x="342.611" y="274.84" style="stroke: #000000; stroke-width: 0.8"/>
      </g>
     </g>
     <g id="text_4">
      <text style="font-size: 10px; font-family: 'DejaVu Sans'; text-anchor: middle" x="342.611" y="289.438438" transform="rotate(-0 342.611 289.438438)">60</text>
     </g>
    </g>
    <g id="xtick_5">
     <g id="line2d_9">
      <path d="M 441.958 274.84 
L 441.958 26.88 
" clip-path="url(#p0f9dba25d6)" style="fill: none; stroke: #b0b0b0; stroke-opacity: 0.15; stroke-width: 0.8; stroke-linecap: square"/>
     </g>
     <g id="line2d_10">
      <g>
       <use xlink:href="#md2431ae41f" x="441.958" y="274.84" style="stroke: #000000; stroke-width: 0.8"/>
      </g>
     </g>
     <g id="text_5">
      <text style="font-size: 10px; font-family: 'DejaVu Sans'; text-anchor: middle" x="441.958" y="289.438438" transform="rotate(-0 441.958 289.438438)">80</text>
     </g>
    </g>
    <g id="xtick_6">
     <g id="line2d_11">
      <path d="M 541.305 274.84 
L 541.305 26.88 
" clip-path="url(#p0f9dba25d6)" style="fill: none; stroke: #b0b0b0; stroke-opacity: 0.15; stroke-width: 0.8; stroke-linecap: square"/>
     </g>
     <g id="line2d_12">
      <g>
       <use xlink:href="#md2431ae41f" x="541.305" y="274.84" style="stroke: #000000; stroke-width: 0.8"/>
      </g>
     </g>
     <g id="text_6">
      <text style="font-size: 10px; font-family: 'DejaVu Sans'; text-anchor: middle" x="541.305" y="289.438438" transform="rotate(-0 541.305 289.438438)">100</text>
     </g>
    </g>
    <g id="text_7">
     <text style="font-size: 10px; font-family: 'DejaVu Sans'; text-anchor: middle" x="292.9375" y="303.116562" transform="rotate(-0 292.9375 303.116562)">Assumed share of final batch inspected (%)</text>
    </g>
   </g>
   <g id="matplotlib.axis_2">
    <g id="ytick_1">
     <g id="line2d_13">
      <path d="M 44.57 274.84 
L 541.305 274.84 
" clip-path="url(#p0f9dba25d6)" style="fill: none; stroke: #b0b0b0; stroke-opacity: 0.15; stroke-width: 0.8; stroke-linecap: square"/>
     </g>
     <g id="line2d_14">
      <defs>
       <path id="m76b4104f61" d="M 0 0 
L -3.5 0 
" style="stroke: #000000; stroke-width: 0.8"/>
      </defs>
      <g>
       <use xlink:href="#m76b4104f61" x="44.57" y="274.84" style="stroke: #000000; stroke-width: 0.8"/>
      </g>
     </g>
     <g id="text_8">
      <text style="font-size: 10px; font-family: 'DejaVu Sans'; text-anchor: end" x="37.57" y="278.639219" transform="rotate(-0 37.57 278.639219)">0</text>
     </g>
    </g>
    <g id="ytick_2">
     <g id="line2d_15">
      <path d="M 44.57 220.935652 
L 541.305 220.935652 
" clip-path="url(#p0f9dba25d6)" style="fill: none; stroke: #b0b0b0; stroke-opacity: 0.15; stroke-width: 0.8; stroke-linecap: square"/>
     </g>
     <g id="line2d_16">
      <g>
       <use xlink:href="#m76b4104f61" x="44.57" y="220.935652" style="stroke: #000000; stroke-width: 0.8"/>
      </g>
     </g>
     <g id="text_9">
      <text style="font-size: 10px; font-family: 'DejaVu Sans'; text-anchor: end" x="37.57" y="224.734871" transform="rotate(-0 37.57 224.734871)">5</text>
     </g>
    </g>
    <g id="ytick_3">
     <g id="line2d_17">
      <path d="M 44.57 167.031304 
L 541.305 167.031304 
" clip-path="url(#p0f9dba25d6)" style="fill: none; stroke: #b0b0b0; stroke-opacity: 0.15; stroke-width: 0.8; stroke-linecap: square"/>
     </g>
     <g id="line2d_18">
      <g>
       <use xlink:href="#m76b4104f61" x="44.57" y="167.031304" style="stroke: #000000; stroke-width: 0.8"/>
      </g>
     </g>
     <g id="text_10">
      <text style="font-size: 10px; font-family: 'DejaVu Sans'; text-anchor: end" x="37.57" y="170.830523" transform="rotate(-0 37.57 170.830523)">10</text>
     </g>
    </g>
    <g id="ytick_4">
     <g id="line2d_19">
      <path d="M 44.57 113.126957 
L 541.305 113.126957 
" clip-path="url(#p0f9dba25d6)" style="fill: none; stroke: #b0b0b0; stroke-opacity: 0.15; stroke-width: 0.8; stroke-linecap: square"/>
     </g>
     <g id="line2d_20">
      <g>
       <use xlink:href="#m76b4104f61" x="44.57" y="113.126957" style="stroke: #000000; stroke-width: 0.8"/>
      </g>
     </g>
     <g id="text_11">
      <text style="font-size: 10px; font-family: 'DejaVu Sans'; text-anchor: end" x="37.57" y="116.926175" transform="rotate(-0 37.57 116.926175)">15</text>
     </g>
    </g>
    <g id="ytick_5">
     <g id="line2d_21">
      <path d="M 44.57 59.222609 
L 541.305 59.222609 
" clip-path="url(#p0f9dba25d6)" style="fill: none; stroke: #b0b0b0; stroke-opacity: 0.15; stroke-width: 0.8; stroke-linecap: square"/>
     </g>
     <g id="line2d_22">
      <g>
       <use xlink:href="#m76b4104f61" x="44.57" y="59.222609" style="stroke: #000000; stroke-width: 0.8"/>
      </g>
     </g>
     <g id="text_12">
      <text style="font-size: 10px; font-family: 'DejaVu Sans'; text-anchor: end" x="37.57" y="63.021827" transform="rotate(-0 37.57 63.021827)">20</text>
     </g>
    </g>
    <g id="text_13">
     <text style="font-size: 10px; font-family: 'DejaVu Sans'; text-anchor: middle" x="18.765313" y="150.86" transform="rotate(-90 18.765313 150.86)">Observed failures identified (of 22)</text>
    </g>
   </g>
   <g id="line2d_23">
    <path d="M 44.57 274.84 
L 69.40675 264.05913 
L 94.2435 253.278261 
L 119.08025 242.497391 
L 143.917 242.497391 
L 168.75375 231.716522 
L 193.5905 210.154783 
L 243.264 177.812174 
L 292.9375 134.688696 
L 342.611 102.346087 
L 417.12125 70.003478 
L 541.305 37.66087 
" clip-path="url(#p0f9dba25d6)" style="fill: none; stroke: #0a192f; stroke-width: 1.5; stroke-linecap: square"/>
    <defs>
     <path id="mef55d6191b" d="M 0 1.5 
C 0.397805 1.5 0.77937 1.341951 1.06066 1.06066 
C 1.341951 0.77937 1.5 0.397805 1.5 0 
C 1.5 -0.397805 1.341951 -0.77937 1.06066 -1.06066 
C 0.77937 -1.341951 0.397805 -1.5 0 -1.5 
C -0.397805 -1.5 -0.77937 -1.341951 -1.06066 -1.06066 
C -1.341951 -0.77937 -1.5 -0.397805 -1.5 0 
C -1.5 0.397805 -1.341951 0.77937 -1.06066 1.06066 
C -0.77937 1.341951 -0.397805 1.5 0 1.5 
z
" style="stroke: #0a192f"/>
    </defs>
    <g clip-path="url(#p0f9dba25d6)">
     <use xlink:href="#mef55d6191b" x="44.57" y="274.84" style="fill: #0a192f; stroke: #0a192f"/>
     <use xlink:href="#mef55d6191b" x="69.40675" y="264.05913" style="fill: #0a192f; stroke: #0a192f"/>
     <use xlink:href="#mef55d6191b" x="94.2435" y="253.278261" style="fill: #0a192f; stroke: #0a192f"/>
     <use xlink:href="#mef55d6191b" x="119.08025" y="242.497391" style="fill: #0a192f; stroke: #0a192f"/>
     <use xlink:href="#mef55d6191b" x="143.917" y="242.497391" style="fill: #0a192f; stroke: #0a192f"/>
     <use xlink:href="#mef55d6191b" x="168.75375" y="231.716522" style="fill: #0a192f; stroke: #0a192f"/>
     <use xlink:href="#mef55d6191b" x="193.5905" y="210.154783" style="fill: #0a192f; stroke: #0a192f"/>
     <use xlink:href="#mef55d6191b" x="243.264" y="177.812174" style="fill: #0a192f; stroke: #0a192f"/>
     <use xlink:href="#mef55d6191b" x="292.9375" y="134.688696" style="fill: #0a192f; stroke: #0a192f"/>
     <use xlink:href="#mef55d6191b" x="342.611" y="102.346087" style="fill: #0a192f; stroke: #0a192f"/>
     <use xlink:href="#mef55d6191b" x="417.12125" y="70.003478" style="fill: #0a192f; stroke: #0a192f"/>
     <use xlink:href="#mef55d6191b" x="541.305" y="37.66087" style="fill: #0a192f; stroke: #0a192f"/>
    </g>
   </g>
   <g id="line2d_24">
    <path d="M 44.57 274.84 
L 69.40675 264.05913 
L 94.2435 264.05913 
L 119.08025 242.497391 
L 143.917 220.935652 
L 168.75375 210.154783 
L 193.5905 210.154783 
L 243.264 188.593043 
L 292.9375 177.812174 
L 342.611 167.031304 
L 417.12125 102.346087 
L 541.305 37.66087 
" clip-path="url(#p0f9dba25d6)" style="fill: none; stroke: #64748b; stroke-width: 1.5; stroke-linecap: square"/>
    <defs>
     <path id="m0861dba768" d="M 0 1.5 
C 0.397805 1.5 0.77937 1.341951 1.06066 1.06066 
C 1.341951 0.77937 1.5 0.397805 1.5 0 
C 1.5 -0.397805 1.341951 -0.77937 1.06066 -1.06066 
C 0.77937 -1.341951 0.397805 -1.5 0 -1.5 
C -0.397805 -1.5 -0.77937 -1.341951 -1.06066 -1.06066 
C -1.341951 -0.77937 -1.5 -0.397805 -1.5 0 
C -1.5 0.397805 -1.341951 0.77937 -1.06066 1.06066 
C -0.77937 1.341951 -0.397805 1.5 0 1.5 
z
" style="stroke: #64748b"/>
    </defs>
    <g clip-path="url(#p0f9dba25d6)">
     <use xlink:href="#m0861dba768" x="44.57" y="274.84" style="fill: #64748b; stroke: #64748b"/>
     <use xlink:href="#m0861dba768" x="69.40675" y="264.05913" style="fill: #64748b; stroke: #64748b"/>
     <use xlink:href="#m0861dba768" x="94.2435" y="264.05913" style="fill: #64748b; stroke: #64748b"/>
     <use xlink:href="#m0861dba768" x="119.08025" y="242.497391" style="fill: #64748b; stroke: #64748b"/>
     <use xlink:href="#m0861dba768" x="143.917" y="220.935652" style="fill: #64748b; stroke: #64748b"/>
     <use xlink:href="#m0861dba768" x="168.75375" y="210.154783" style="fill: #64748b; stroke: #64748b"/>
     <use xlink:href="#m0861dba768" x="193.5905" y="210.154783" style="fill: #64748b; stroke: #64748b"/>
     <use xlink:href="#m0861dba768" x="243.264" y="188.593043" style="fill: #64748b; stroke: #64748b"/>
     <use xlink:href="#m0861dba768" x="292.9375" y="177.812174" style="fill: #64748b; stroke: #64748b"/>
     <use xlink:href="#m0861dba768" x="342.611" y="167.031304" style="fill: #64748b; stroke: #64748b"/>
     <use xlink:href="#m0861dba768" x="417.12125" y="102.346087" style="fill: #64748b; stroke: #64748b"/>
     <use xlink:href="#m0861dba768" x="541.305" y="37.66087" style="fill: #64748b; stroke: #64748b"/>
    </g>
   </g>
   <g id="line2d_25">
    <path d="M 44.57 274.84 
L 69.40675 264.05913 
L 94.2435 264.05913 
L 119.08025 253.278261 
L 143.917 231.716522 
L 168.75375 231.716522 
L 193.5905 210.154783 
L 243.264 167.031304 
L 292.9375 156.250435 
L 342.611 134.688696 
L 417.12125 102.346087 
L 541.305 37.66087 
" clip-path="url(#p0f9dba25d6)" style="fill: none; stroke: #925322; stroke-width: 1.5; stroke-linecap: square"/>
    <defs>
     <path id="ma5339f0a08" d="M 0 1.5 
C 0.397805 1.5 0.77937 1.341951 1.06066 1.06066 
C 1.341951 0.77937 1.5 0.397805 1.5 0 
C 1.5 -0.397805 1.341951 -0.77937 1.06066 -1.06066 
C 0.77937 -1.341951 0.397805 -1.5 0 -1.5 
C -0.397805 -1.5 -0.77937 -1.341951 -1.06066 -1.06066 
C -1.341951 -0.77937 -1.5 -0.397805 -1.5 0 
C -1.5 0.397805 -1.341951 0.77937 -1.06066 1.06066 
C -0.77937 1.341951 -0.397805 1.5 0 1.5 
z
" style="stroke: #925322"/>
    </defs>
    <g clip-path="url(#p0f9dba25d6)">
     <use xlink:href="#ma5339f0a08" x="44.57" y="274.84" style="fill: #925322; stroke: #925322"/>
     <use xlink:href="#ma5339f0a08" x="69.40675" y="264.05913" style="fill: #925322; stroke: #925322"/>
     <use xlink:href="#ma5339f0a08" x="94.2435" y="264.05913" style="fill: #925322; stroke: #925322"/>
     <use xlink:href="#ma5339f0a08" x="119.08025" y="253.278261" style="fill: #925322; stroke: #925322"/>
     <use xlink:href="#ma5339f0a08" x="143.917" y="231.716522" style="fill: #925322; stroke: #925322"/>
     <use xlink:href="#ma5339f0a08" x="168.75375" y="231.716522" style="fill: #925322; stroke: #925322"/>
     <use xlink:href="#ma5339f0a08" x="193.5905" y="210.154783" style="fill: #925322; stroke: #925322"/>
     <use xlink:href="#ma5339f0a08" x="243.264" y="167.031304" style="fill: #925322; stroke: #925322"/>
     <use xlink:href="#ma5339f0a08" x="292.9375" y="156.250435" style="fill: #925322; stroke: #925322"/>
     <use xlink:href="#ma5339f0a08" x="342.611" y="134.688696" style="fill: #925322; stroke: #925322"/>
     <use xlink:href="#ma5339f0a08" x="417.12125" y="102.346087" style="fill: #925322; stroke: #925322"/>
     <use xlink:href="#ma5339f0a08" x="541.305" y="37.66087" style="fill: #925322; stroke: #925322"/>
    </g>
   </g>
   <g id="line2d_26">
    <path d="M 44.57 274.84 
L 69.40675 264.05913 
L 94.2435 264.05913 
L 119.08025 253.278261 
L 143.917 253.278261 
L 168.75375 242.497391 
L 193.5905 199.373913 
L 243.264 177.812174 
L 292.9375 156.250435 
L 342.611 145.469565 
L 417.12125 102.346087 
L 541.305 37.66087 
" clip-path="url(#p0f9dba25d6)" style="fill: none; stroke: #94a3b8; stroke-width: 1.5; stroke-linecap: square"/>
    <defs>
     <path id="m22ea2ca4ff" d="M 0 1.5 
C 0.397805 1.5 0.77937 1.341951 1.06066 1.06066 
C 1.341951 0.77937 1.5 0.397805 1.5 0 
C 1.5 -0.397805 1.341951 -0.77937 1.06066 -1.06066 
C 0.77937 -1.341951 0.397805 -1.5 0 -1.5 
C -0.397805 -1.5 -0.77937 -1.341951 -1.06066 -1.06066 
C -1.341951 -0.77937 -1.5 -0.397805 -1.5 0 
C -1.5 0.397805 -1.341951 0.77937 -1.06066 1.06066 
C -0.77937 1.341951 -0.397805 1.5 0 1.5 
z
" style="stroke: #94a3b8"/>
    </defs>
    <g clip-path="url(#p0f9dba25d6)">
     <use xlink:href="#m22ea2ca4ff" x="44.57" y="274.84" style="fill: #94a3b8; stroke: #94a3b8"/>
     <use xlink:href="#m22ea2ca4ff" x="69.40675" y="264.05913" style="fill: #94a3b8; stroke: #94a3b8"/>
     <use xlink:href="#m22ea2ca4ff" x="94.2435" y="264.05913" style="fill: #94a3b8; stroke: #94a3b8"/>
     <use xlink:href="#m22ea2ca4ff" x="119.08025" y="253.278261" style="fill: #94a3b8; stroke: #94a3b8"/>
     <use xlink:href="#m22ea2ca4ff" x="143.917" y="253.278261" style="fill: #94a3b8; stroke: #94a3b8"/>
     <use xlink:href="#m22ea2ca4ff" x="168.75375" y="242.497391" style="fill: #94a3b8; stroke: #94a3b8"/>
     <use xlink:href="#m22ea2ca4ff" x="193.5905" y="199.373913" style="fill: #94a3b8; stroke: #94a3b8"/>
     <use xlink:href="#m22ea2ca4ff" x="243.264" y="177.812174" style="fill: #94a3b8; stroke: #94a3b8"/>
     <use xlink:href="#m22ea2ca4ff" x="292.9375" y="156.250435" style="fill: #94a3b8; stroke: #94a3b8"/>
     <use xlink:href="#m22ea2ca4ff" x="342.611" y="145.469565" style="fill: #94a3b8; stroke: #94a3b8"/>
     <use xlink:href="#m22ea2ca4ff" x="417.12125" y="102.346087" style="fill: #94a3b8; stroke: #94a3b8"/>
     <use xlink:href="#m22ea2ca4ff" x="541.305" y="37.66087" style="fill: #94a3b8; stroke: #94a3b8"/>
    </g>
   </g>
   <g id="patch_3">
    <path d="M 44.57 274.84 
L 44.57 26.88 
" style="fill: none; stroke: #000000; stroke-width: 0.8; stroke-linejoin: miter; stroke-linecap: square"/>
   </g>
   <g id="patch_4">
    <path d="M 44.57 274.84 
L 541.305 274.84 
" style="fill: none; stroke: #000000; stroke-width: 0.8; stroke-linejoin: miter; stroke-linecap: square"/>
   </g>
   <g id="text_14">
    <text style="font-size: 12px; font-family: 'DejaVu Sans'; text-anchor: middle" x="292.9375" y="20.88" transform="rotate(-0 292.9375 20.88)">More inspection is not proof of a useful ranking</text>
   </g>
   <g id="legend_1">
    <g id="line2d_27">
     <path d="M 51.77 37.35875 
L 59.77 37.35875 
L 67.77 37.35875 
" style="fill: none; stroke: #0a192f; stroke-width: 1.5; stroke-linecap: square"/>
     <g>
      <use xlink:href="#mef55d6191b" x="59.77" y="37.35875" style="fill: #0a192f; stroke: #0a192f"/>
     </g>
    </g>
    <g id="text_15">
     <text style="font-size: 8px; font-family: 'DejaVu Sans'; text-anchor: start" x="74.17" y="40.15875" transform="rotate(-0 74.17 40.15875)">Sparse logistic</text>
    </g>
    <g id="line2d_28">
     <path d="M 51.77 49.10125 
L 59.77 49.10125 
L 67.77 49.10125 
" style="fill: none; stroke: #64748b; stroke-width: 1.5; stroke-linecap: square"/>
     <g>
      <use xlink:href="#m0861dba768" x="59.77" y="49.10125" style="fill: #64748b; stroke: #64748b"/>
     </g>
    </g>
    <g id="text_16">
     <text style="font-size: 8px; font-family: 'DejaVu Sans'; text-anchor: start" x="74.17" y="51.90125" transform="rotate(-0 74.17 51.90125)">PCA monitor</text>
    </g>
    <g id="line2d_29">
     <path d="M 51.77 60.84375 
L 59.77 60.84375 
L 67.77 60.84375 
" style="fill: none; stroke: #925322; stroke-width: 1.5; stroke-linecap: square"/>
     <g>
      <use xlink:href="#ma5339f0a08" x="59.77" y="60.84375" style="fill: #925322; stroke: #925322"/>
     </g>
    </g>
    <g id="text_17">
     <text style="font-size: 8px; font-family: 'DejaVu Sans'; text-anchor: start" x="74.17" y="63.64375" transform="rotate(-0 74.17 63.64375)">Boosting</text>
    </g>
    <g id="line2d_30">
     <path d="M 51.77 72.58625 
L 59.77 72.58625 
L 67.77 72.58625 
" style="fill: none; stroke: #94a3b8; stroke-width: 1.5; stroke-linecap: square"/>
     <g>
      <use xlink:href="#m22ea2ca4ff" x="59.77" y="72.58625" style="fill: #94a3b8; stroke: #94a3b8"/>
     </g>
    </g>
    <g id="text_18">
     <text style="font-size: 8px; font-family: 'DejaVu Sans'; text-anchor: start" x="74.17" y="75.38625" transform="rotate(-0 74.17 75.38625)">No missingness indicators</text>
    </g>
   </g>
  </g>
 </g>
 <defs>
  <clipPath id="p0f9dba25d6">
   <rect x="44.57" y="26.88" width="496.735" height="247.96"/>
  </clipPath>
 </defs>
</svg>
